{"title":"True.Blood.S05E03.HDTV.XviD-Atilla82","uid":7388724,"size":411026975,"categoryP":"video","categoryS":"tv_shows","magnet":"?xt=urn:btih:854e74280687aff59cf7af78077527a69e0c16e2&amp;dn=True.Blood.S05E03.HDTV.XviD-Atilla82&amp;tr=udp%3A%2F%2Ftracker.openbittorrent.com%3A80&amp;tr=udp%3A%2F%2Fopen.demonii.com%3A1337&amp;tr=udp%3A%2F%2Ftracker.coppersurfer.tk%3A6969&amp;tr=udp%3A%2F%2Fexodus.desync.com%3A6969","seeders":1,"leechers":1,"uploader":"Atilla82","files":4,"time":1340716429,"description":"True Blood S05E03 HDTV XviD-Atilla82\n\n &lt;a href=&quot;\nhttp://www.imdb.com/title/tt0844441/&quot; rel=&quot;nofollow&quot; target=&quot;_NEW&quot;&gt;\nhttp://www.imdb.com/title/tt0844441/&lt;/a&gt;\n \n\n\nIn a world where vampires have &quot;come out of the coffin&quot;, Sookie Stackhouse, a telepathic waitress, discovers a new world of different creatures when she meets Bill Compton, a vampire.\n\n\n\nGeneral\nComplete name : True.Blood.S05E03.HDTV.XviD-Atilla82.avi\nFormat : AVI\nFormat/Info : Audio Video Interleave\nFile size : 392 MiB\nDuration : 1h 0mn\nOverall bit rate : 905 Kbps\nWriting application : VirtualDubMod 1.5.10.2 (build 2540/release)\nWriting library : VirtualDubMod build 2540/release\n\nVideo\nID : 0\nFormat : MPEG-4 Visual\nFormat settings, BVOP : 1\nFormat settings, QPel : No\nFormat settings, GMC : No warppoints\nFormat settings, Matrix : Default (H.263)\nMuxing mode : Packed bitstream\nCodec ID : DX50\nCodec ID/Hint : DivX 5\nDuration : 1h 0mn\nBit rate : 767 Kbps\nWidth : 680 pixels\nHeight : 384 pixels\nDisplay aspect ratio : 16:9\nFrame rate : 23.976 fps\nColor space : YUV\nChroma subsampling : 4:2:0\nBit depth : 8 bits\nScan type : Progressive\nCompression mode : Lossy\nBits/(Pixel*Frame) : 0.123\nStream size : 332 MiB (85%)\nWriting library : DivX 3330\n\nAudio\nID : 1\nFormat : MPEG Audio\nFormat version : Version 1\nFormat profile : Layer 3\nCodec ID : 55\nCodec ID/Hint : MP3\nDuration : 1h 0mn\nBit rate mode : Constant\nBit rate : 128 Kbps\nChannel(s) : 2 channels\nSampling rate : 48.0 KHz\nCompression mode : Lossy\nStream size : 55.4 MiB (14%)\nAlignment : Aligned on interleaves\nInterleave, duration : 42 ms (1.00 video frame)\nInterleave, preload duration : 504 ms\n\n\nSCREENS &lt;a href=&quot;\nhttp://www.pohrani.com/f/Q/us/dLJB4WF/truebloods05e03hdtvxvid-.jpg&quot; rel=&quot;nofollow&quot; target=&quot;_NEW&quot;&gt;\nhttp://www.pohrani.com/f/Q/us/dLJB4WF/truebloods05e03hdtvxvid-.jpg&lt;/a&gt;\n\n","torrent":{"xt":"urn:btih:854e74280687aff59cf7af78077527a69e0c16e2","amp;dn":"True.Blood.S05E03.HDTV.XviD-Atilla82","amp;tr":["udp%3A%2F%2Ftracker.openbittorrent.com%3A80","udp%3A%2F%2Fopen.demonii.com%3A1337","udp%3A%2F%2Ftracker.coppersurfer.tk%3A6969","udp%3A%2F%2Fexodus.desync.com%3A6969"],"infoHash":"854e74280687aff59cf7af78077527a69e0c16e2","infoHashBuffer":{"type":"Buffer","data":[133,78,116,40,6,135,175,245,156,247,175,120,7,117,39,166,158,12,22,226]},"announce":[],"urlList":[]}}